# xmcd CD database file
#
# Track frame offsets:
#	150
#	16940
#	36152
#	52294
#	70839
#	93003
#	111203
#	128282
#	142991
#	160535
#	177666
#	195638
#	214153
#	232497
#	246235
#	263359
#	282862
#	295303
#
# Disc length: 4180 seconds
#
# Revision: 1
# Processed by: cddbd v1.5.2PL0 Copyright (c) Steve Scherf et al.
# Submitted via: CDex 1.51
#
DISCID=05105212
DTITLE=Sandra de Sá - Música Preta Brasileira - Ao Vivo
DYEAR=1900
DGENRE=Soul
TTITLE0=Joga Fora
TTITLE1=Bye Bye, Tristeza
TTITLE2=Demônio Colorido
TTITLE3=Boralá (Criolo Brasileiro)
TTITLE4=Olhos Coloridos
TTITLE5=Retratos e Canções
TTITLE6=Soul de Verão (Fame)
TTITLE7=Com Você Tudo Fica Melhor
TTITLE8=Não Vá
TTITLE9=Sozinha
TTITLE10=Qual é (Wat's Going On)
TTITLE11=As Dores do Mundo
TTITLE12=Black Is Beautiful
TTITLE13=Enredo do Meu Samba
TTITLE14=Solidão
TTITLE15=Nada Mais (Lately)
TTITLE16=Não Pode
TTITLE17=Vale Tudo
EXTD=
EXTT0=
EXTT1=
EXTT2=
EXTT3=
EXTT4=
EXTT5=
EXTT6=
EXTT7=
EXTT8=
EXTT9=
EXTT10=
EXTT11=
EXTT12=
EXTT13=
EXTT14=
EXTT15=
EXTT16=
EXTT17=
PLAYORDER=
